<svg width="26" height="26" fill="none" xmlns="http://www.w3.org/2000/svg"><path d="M22.302 6.386c-3.026-2.265-5.926-2.201-5.926-2.201l-.296.338c3.598 1.08 5.27 2.667 5.27 2.667-5.148-2.834-11.705-2.814-17.06 0 0 0 1.736-1.672 5.546-2.751l-.212-.255s-2.878-.063-5.926 2.202c0 0-3.048 5.481-3.048 12.233 0 0 1.778 3.048 6.456 3.196 0 0 .783-.931 1.418-1.735-2.688-.805-3.704-2.477-3.704-2.477 1.689 1.057 3.396 1.718 5.524 2.138 3.462.713 7.769-.02 10.985-2.138 0 0-1.058 1.715-3.83 2.498.634.783 1.396 1.693 1.396 1.693 4.677-.148 6.455-3.196 6.455-3.175 0-6.751-3.048-12.233-3.048-12.233zM9.052 16.65c-1.185 0-2.158-1.037-2.158-2.328.087-3.092 4.253-3.082 4.318 0 0 1.291-.953 2.328-2.16 2.328zm7.726 0c-1.185 0-2.159-1.037-2.159-2.328.096-3.086 4.21-3.087 4.318 0 0 1.291-.952 2.328-2.159 2.328z" fill="#fff" fill-opacity=".3"/></svg>