<svg width="26" height="26" fill="none" xmlns="http://www.w3.org/2000/svg"><g clip-path="url(#clip0_215_544)"><path d="M12.978 0C6.136 0 .532 5.262 0 11.948l6.98 2.878a3.667 3.667 0 012.28-.633l3.104-4.489v-.062c0-2.701 2.203-4.899 4.91-4.899 2.709 0 4.911 2.198 4.911 4.899 0 2.7-2.202 4.899-4.91 4.899l-.112-.002-4.427 3.15a3.686 3.686 0 01-7.295.9l-4.993-2.06a13.022 13.022 0 0012.53 9.45C20.17 25.979 26 20.163 26 12.989 26 5.816 20.17 0 12.978 0zM8.16 19.71l-1.6-.66a2.746 2.746 0 001.425 1.352 2.77 2.77 0 003.617-1.486 2.737 2.737 0 00.005-2.111 2.746 2.746 0 00-1.494-1.497 2.765 2.765 0 00-2.04-.03l1.653.681a2.03 2.03 0 011.097 2.657 2.038 2.038 0 01-2.663 1.093zM20.547 9.641a3.273 3.273 0 00-6.545 0c0 1.8 1.468 3.263 3.273 3.263a3.272 3.272 0 003.272-3.263zm-5.725-.006a2.455 2.455 0 012.458-2.451 2.455 2.455 0 012.458 2.451 2.455 2.455 0 01-2.458 2.452 2.455 2.455 0 01-2.458-2.452z" fill="#fff"/></g><defs><clipPath id="clip0_215_544"><path fill="#fff" d="M0 0h26v26H0z"/></clipPath></defs></svg>