<svg width="26" height="26" fill="none" xmlns="http://www.w3.org/2000/svg"><path d="M12.72 19.542h1.554s.47-.052.709-.31c.22-.237.213-.683.213-.683s-.031-2.084.937-2.392c.954-.302 2.18 2.015 3.478 2.908.981.674 1.727.526 1.727.526l3.473-.049s1.817-.112.955-1.54c-.07-.117-.502-1.056-2.582-2.987-2.177-2.021-1.885-1.693.738-5.188 1.597-2.13 2.236-3.43 2.036-3.985-.19-.53-1.365-.39-1.365-.39l-3.906.023s-.29-.04-.506.09c-.21.126-.344.418-.344.418s-.62 1.648-1.445 3.049c-1.74 2.956-2.437 3.112-2.722 2.928-.661-.427-.495-1.72-.495-2.636 0-2.864.433-4.059-.847-4.368-.426-.102-.738-.17-1.825-.182-1.394-.014-2.576.005-3.243.332-.446.218-.789.704-.579.731.258.034.843.158 1.154.58.401.545.387 1.77.387 1.77s.23 3.372-.538 3.791c-.528.288-1.252-.299-2.803-2.982-.795-1.373-1.396-2.892-1.396-2.892s-.116-.283-.322-.434c-.25-.184-.601-.242-.601-.242L.847 5.45s-.557.017-.762.259c-.182.216-.015.661-.015.661s2.909 6.804 6.201 10.234c3.021 3.145 6.45 2.938 6.45 2.938z" fill="#fff" fill-opacity=".3"/></svg>