<svg width="97" height="89" fill="none" xmlns="http://www.w3.org/2000/svg"><path d="M5.09 73.34H3.495v4.753H0V65.677h3.494v4.825H5.18l2.962-4.825h3.69l-3.885 5.995 3.92 6.421H7.911L5.09 73.34zm13.942 5.002c-1.313 0-2.492-.278-3.539-.834a6.264 6.264 0 01-2.465-2.306c-.597-.981-.896-2.087-.896-3.317s.299-2.335.896-3.317a6.266 6.266 0 012.465-2.306c1.047-.555 2.226-.833 3.539-.833 1.313 0 2.492.278 3.539.833a6.266 6.266 0 012.465 2.306c.597.982.896 2.087.896 3.317s-.299 2.336-.896 3.317a6.265 6.265 0 01-2.465 2.306c-1.047.556-2.226.834-3.539.834zm0-2.91c.627 0 1.194-.147 1.703-.443a3.19 3.19 0 001.206-1.25c.296-.538.443-1.156.443-1.854 0-.697-.147-1.315-.443-1.853a3.19 3.19 0 00-1.206-1.25 3.325 3.325 0 00-1.703-.444c-.627 0-1.194.148-1.703.443-.508.296-.91.712-1.206 1.25-.296.539-.443 1.157-.443 1.854 0 .698.148 1.316.443 1.854a3.19 3.19 0 001.206 1.25 3.326 3.326 0 001.703.444zm20.008-9.755v12.416h-3.46v-9.631h-3.565l-.071 2.022c-.06 1.774-.204 3.216-.435 4.328-.23 1.112-.623 1.972-1.18 2.58-.555.61-1.341.914-2.358.914-.473 0-1.005-.07-1.597-.213l.195-2.873c.154.035.314.053.48.053.46 0 .815-.183 1.064-.55.248-.366.425-.878.532-1.534.106-.656.177-1.51.212-2.563l.178-4.949H39.04zm22.562 7.663h-1.597v4.753h-3.494V65.677h3.494v4.825h1.685l2.963-4.825h3.689l-3.885 5.995 3.92 6.421h-3.955l-2.82-4.753zm13.941 5.002c-1.312 0-2.492-.278-3.538-.834a6.265 6.265 0 01-2.466-2.306c-.597-.981-.896-2.087-.896-3.317s.3-2.335.896-3.317a6.266 6.266 0 012.466-2.306c1.046-.555 2.226-.833 3.538-.833 1.313 0 2.492.278 3.539.833a6.266 6.266 0 012.465 2.306c.597.982.896 2.087.896 3.317s-.299 2.336-.896 3.317a6.265 6.265 0 01-2.465 2.306c-1.047.556-2.226.834-3.539.834zm0-2.91c.627 0 1.194-.147 1.703-.443a3.19 3.19 0 001.206-1.25c.296-.538.444-1.156.444-1.854 0-.697-.148-1.315-.444-1.853a3.19 3.19 0 00-1.206-1.25 3.325 3.325 0 00-1.703-.444c-.627 0-1.194.148-1.703.443-.508.296-.91.712-1.206 1.25-.295.539-.443 1.157-.443 1.854 0 .698.148 1.316.443 1.854a3.19 3.19 0 001.206 1.25 3.327 3.327 0 001.703.444zm20.008-9.755v12.416h-3.459v-9.631h-3.565l-.07 2.022c-.06 1.774-.205 3.216-.435 4.328-.231 1.112-.624 1.972-1.18 2.58-.556.61-1.342.914-2.36.914-.472 0-1.004-.07-1.596-.213l.196-2.873c.153.035.313.053.479.053.46 0 .815-.183 1.064-.55.248-.366.425-.878.532-1.534.106-.656.177-1.51.213-2.563l.177-4.949h10.004z" fill="#fff"/><path d="M47.803 78.342c-1.313 0-2.492-.278-3.539-.834a6.264 6.264 0 01-2.465-2.306c-.597-.981-.896-2.087-.896-3.317s.299-2.335.896-3.317a6.265 6.265 0 012.465-2.306c1.047-.555 2.226-.833 3.539-.833 1.312 0 2.492.278 3.539.833a6.265 6.265 0 012.465 2.306c.597.982.896 2.087.896 3.317s-.299 2.336-.896 3.317a6.264 6.264 0 01-2.465 2.306c-1.047.556-2.227.834-3.54.834zm0-2.91c.627 0 1.194-.147 1.703-.443a3.19 3.19 0 001.206-1.25c.295-.538.443-1.156.443-1.854 0-.697-.148-1.315-.443-1.853a3.189 3.189 0 00-1.206-1.25 3.325 3.325 0 00-1.703-.444c-.627 0-1.194.148-1.703.443-.508.296-.91.712-1.206 1.25-.296.539-.443 1.157-.443 1.854 0 .698.147 1.316.443 1.854a3.19 3.19 0 001.206 1.25 3.327 3.327 0 001.703.444z" fill="#008DD2"/><path d="M2.174 82.32c.508 0 .962.125 1.364.375.402.25.716.6.944 1.047.227.446.34.953.34 1.518 0 .565-.113 1.071-.34 1.518a2.58 2.58 0 01-.944 1.046c-.402.25-.856.376-1.364.376-.464 0-.881-.092-1.252-.275A2.439 2.439 0 010 87.134l.897-.921c.335.442.737.662 1.206.662.301 0 .558-.093.771-.278.213-.186.36-.443.441-.772H1.5v-1.18h1.8a1.387 1.387 0 00-.438-.734 1.14 1.14 0 00-.76-.267c-.47 0-.871.221-1.206.663L0 83.386c.244-.345.551-.608.922-.792.37-.183.788-.274 1.252-.274zm5.447 3.602h-.646v2.165H5.562v-5.654h1.413v2.197h.682l1.198-2.197h1.493l-1.572 2.73 1.587 2.924h-1.6L7.62 85.922zM13.24 88.2a2.7 2.7 0 01-1.417-.376 2.646 2.646 0 01-.987-1.046 3.166 3.166 0 01-.359-1.518c0-.565.12-1.072.36-1.519.238-.447.567-.795.986-1.046a2.71 2.71 0 011.417-.375c.46 0 .873.091 1.242.274.368.184.674.447.918.792l-.904.92c-.325-.44-.72-.662-1.184-.662-.273 0-.516.068-.728.202a1.34 1.34 0 00-.496.57 1.933 1.933 0 00-.175.844c0 .318.058.599.175.844.118.245.283.435.496.57.212.134.455.201.728.201.464 0 .859-.22 1.184-.662l.904.92c-.244.345-.55.61-.918.792a2.754 2.754 0 01-1.242.275zm6.803-4.499h-1.535v4.386h-1.4V83.7h-1.543v-1.268h4.478V83.7zm2.95-1.268c.454 0 .849.085 1.184.254.335.17.593.412.775.727.181.315.272.686.272 1.11 0 .426-.09.795-.272 1.107-.182.313-.44.554-.775.723-.335.17-.73.255-1.184.255h-.876v1.478h-1.42v-5.654h2.296zm-.086 2.916c.291 0 .511-.072.66-.215.148-.142.222-.345.222-.61 0-.263-.074-.468-.222-.613-.149-.145-.369-.218-.66-.218h-.79v1.656h.79zm6.99 1.502v1.236h-4.034v-5.654h3.94v1.235H27.27v.954h2.23v1.195h-2.23v1.034h2.626zm5.59-4.418v5.654h-1.422v-2.205h-1.937v2.205h-1.42v-5.654h1.42v2.124h1.938v-2.124h1.42zm5.855 0v5.654h-1.42v-2.205h-1.938v2.205h-1.421v-5.654h1.42v2.124h1.938v-2.124h1.421zm3.638 1.801c.617 0 1.094.155 1.429.465.334.31.502.768.502 1.377 0 .651-.187 1.15-.56 1.494-.373.345-.892.517-1.557.517h-2.375v-5.654h1.399v1.801h1.162zm-.28 2.706c.24 0 .43-.073.571-.218.141-.145.212-.35.212-.614 0-.49-.261-.735-.782-.735h-.883v1.567h.883zm2.764-4.507h1.399v5.654h-1.4v-5.654zm2.482 0h1.4v3.32l2.074-3.32h1.334v5.654h-1.399v-3.312l-2.067 3.312h-1.342v-5.654zm7.973 0h1.4v3.32l2.073-3.32h1.335v5.654h-1.4v-3.312l-2.066 3.312h-1.342v-5.654zm9.558 1.268h-2.274v4.386h-1.4v-5.654h3.682l-.008 1.268zm2.943-1.268c.454 0 .849.085 1.184.254.335.17.593.412.775.727.182.315.272.686.272 1.11 0 .426-.09.795-.272 1.107-.182.313-.44.554-.775.723-.335.17-.73.255-1.184.255h-.876v1.478h-1.42v-5.654h2.296zm-.086 2.916c.291 0 .511-.072.66-.215.148-.142.222-.345.222-.61 0-.263-.074-.468-.222-.613-.149-.145-.369-.218-.66-.218h-.79v1.656h.79zm5.496 2.85a2.737 2.737 0 01-1.431-.379 2.685 2.685 0 01-.998-1.05 3.126 3.126 0 01-.362-1.51c0-.56.12-1.064.362-1.51a2.685 2.685 0 012.43-1.43 2.685 2.685 0 012.43 1.43c.24.446.361.95.361 1.51s-.12 1.063-.362 1.51a2.685 2.685 0 01-.998 1.05c-.423.253-.9.38-1.432.38zm0-1.324c.254 0 .484-.067.69-.202a1.39 1.39 0 00.487-.57 1.9 1.9 0 00.18-.843c0-.318-.06-.6-.18-.844a1.391 1.391 0 00-.488-.57 1.23 1.23 0 00-.689-.202 1.23 1.23 0 00-.688.202 1.394 1.394 0 00-.489.57 1.908 1.908 0 00-.179.844c0 .318.06.599.18.844s.282.435.488.57c.206.134.435.201.688.201zm7.213-1.744c.296.107.522.274.678.5.155.227.233.507.233.84 0 .501-.173.896-.52 1.184-.347.288-.839.432-1.475.432h-2.576v-5.654h2.44c.603 0 1.07.128 1.403.383.332.256.499.618.499 1.087 0 .275-.06.517-.176.727-.118.21-.286.377-.506.5zm-2.26-.436h.903c.402 0 .603-.186.603-.558 0-.371-.2-.557-.603-.557h-.904v1.115zm1.119 2.245c.411 0 .617-.197.617-.59 0-.382-.206-.573-.617-.573h-1.12v1.163h1.12zm5.289 1.26a2.738 2.738 0 01-1.432-.38 2.685 2.685 0 01-.998-1.05 3.125 3.125 0 01-.362-1.51c0-.56.12-1.064.362-1.51a2.685 2.685 0 012.43-1.43 2.685 2.685 0 012.429 1.43c.241.446.362.95.362 1.51s-.12 1.063-.362 1.51a2.685 2.685 0 01-.998 1.05c-.423.253-.9.38-1.431.38zm0-1.325c.253 0 .483-.067.688-.202a1.39 1.39 0 00.489-.57 1.9 1.9 0 00.179-.843c0-.318-.06-.6-.18-.844a1.391 1.391 0 00-.488-.57 1.23 1.23 0 00-.688-.202 1.23 1.23 0 00-.69.202 1.394 1.394 0 00-.488.57 1.908 1.908 0 00-.179.844c0 .318.06.599.18.844s.282.435.488.57c.205.134.435.201.689.201zm3.552-4.442h1.4v3.32l2.073-3.32h1.335v5.654h-1.4v-3.312l-2.066 3.312h-1.342v-5.654z" fill="#fff"/><path d="M44.27 19.949c-6.456 2.917-9.334 10.544-6.416 16.999 2.918 6.456 10.544 9.333 16.999 6.416 6.454-2.918 9.333-10.544 6.415-17-2.918-6.455-10.544-9.333-16.999-6.415zm15.866 35.103c-12.9 5.83-28.14.08-33.97-12.821-5.83-12.9-.08-28.14 12.82-33.97 12.9-5.83 28.138-.079 33.969 12.82 5.83 12.902.08 28.14-12.82 33.97z" fill="#4930EC"/><path d="M54.807 27.37l-11.929 5.393-12.371-27.37L42.435 0l12.372 27.37z" fill="#008DD2"/><path fill-rule="evenodd" clip-rule="evenodd" d="M6.91 5.231h12.78v51.306H6.91v-34.45H0L6.42 5.231h.49zm76.547 0h12.779v51.306h-12.78v-34.45h-6.768l6.42-16.856h.349z" fill="#fff"/></svg>