<svg width="91" height="77" fill="none" xmlns="http://www.w3.org/2000/svg"><path d="M41.415 17.985c-6.038 2.631-8.731 9.507-6.002 15.326 2.73 5.821 9.865 8.415 15.903 5.785 6.039-2.63 8.732-9.506 6.002-15.326-2.73-5.82-9.864-8.415-15.903-5.785zM56.26 49.633c-12.068 5.257-26.325.072-31.78-11.559-5.455-11.63-.074-25.37 11.994-30.626C48.54 2.19 62.797 7.377 68.25 19.007c5.456 11.63.075 25.37-11.992 30.626z" fill="#4930EC"/><path d="M51.274 24.677l-11.16 4.861L28.54 4.861 39.7 0l11.574 24.677z" fill="#008DD2"/><path fill-rule="evenodd" clip-rule="evenodd" d="M6.465 4.716H18.42v46.257H6.465v-31.06H0L6.005 4.717h.46zm71.611 0h11.956v46.257H78.076v-31.06h-6.332L77.75 4.717h.327z" fill="#fff"/><path d="M8.105 64.691H6.654v4.166H3.477v-10.88h3.177v4.227h1.532l2.694-4.228h3.354l-3.532 5.254 3.565 5.627H10.67L8.105 64.69zm12.677 4.383c-1.193 0-2.265-.243-3.217-.73s-1.699-1.16-2.242-2.02c-.543-.86-.815-1.83-.815-2.907 0-1.078.272-2.047.815-2.907.543-.86 1.29-1.534 2.242-2.02.951-.488 2.024-.731 3.217-.731 1.194 0 2.267.243 3.218.73.952.487 1.7 1.16 2.242 2.021.543.86.815 1.829.815 2.907 0 1.077-.272 2.046-.815 2.906-.543.86-1.29 1.534-2.242 2.02-.951.488-2.024.731-3.218.731zm0-2.549c.57 0 1.087-.13 1.549-.388a2.86 2.86 0 001.097-1.096c.268-.472.403-1.013.403-1.624 0-.612-.134-1.153-.403-1.625a2.845 2.845 0 00-1.097-1.096 3.114 3.114 0 00-1.549-.388c-.57 0-1.085.13-1.548.389a2.85 2.85 0 00-1.097 1.095c-.268.472-.403 1.013-.403 1.625 0 .61.135 1.152.403 1.624.27.471.635.837 1.097 1.096.462.259.979.388 1.548.388zm18.194-8.549v10.88H35.83v-8.44h-3.242l-.065 1.773c-.053 1.554-.185 2.818-.395 3.792-.21.974-.567 1.728-1.072 2.262-.506.534-1.22.8-2.145.8-.43 0-.915-.062-1.452-.186l.177-2.518a2 2 0 00.436.046c.419 0 .742-.16.968-.482.225-.32.387-.769.483-1.344.097-.575.162-1.324.194-2.246l.161-4.337h9.097zm20.515 6.715H58.04v4.166h-3.178v-10.88h3.178v4.227h1.532l2.694-4.228h3.354l-3.532 5.254 3.565 5.627h-3.597L59.49 64.69zm12.677 4.383c-1.193 0-2.266-.243-3.217-.73-.952-.487-1.699-1.16-2.242-2.02-.543-.86-.815-1.83-.815-2.907 0-1.078.272-2.047.815-2.907.543-.86 1.29-1.534 2.242-2.02.952-.488 2.024-.731 3.217-.731 1.194 0 2.267.243 3.218.73.952.487 1.699 1.16 2.242 2.021.543.86.815 1.829.815 2.907 0 1.077-.272 2.046-.815 2.906-.543.86-1.29 1.534-2.242 2.02-.951.488-2.024.731-3.218.731zm0-2.549c.57 0 1.086-.13 1.549-.388a2.86 2.86 0 001.097-1.096c.269-.472.403-1.013.403-1.624 0-.612-.135-1.153-.403-1.625a2.845 2.845 0 00-1.097-1.096 3.114 3.114 0 00-1.549-.388c-.57 0-1.086.13-1.548.389a2.85 2.85 0 00-1.097 1.095c-.268.472-.403 1.013-.403 1.625 0 .61.135 1.152.403 1.624.27.471.635.837 1.097 1.096a3.11 3.11 0 001.548.388zm18.194-8.549v10.88h-3.145v-8.44h-3.242l-.065 1.773c-.054 1.554-.185 2.818-.395 3.792-.21.974-.567 1.728-1.073 2.262-.505.534-1.22.8-2.145.8-.43 0-.914-.062-1.451-.186l.177-2.518a2 2 0 00.436.046c.419 0 .742-.16.967-.482.226-.32.388-.769.484-1.344.097-.575.162-1.324.194-2.246l.161-4.337h9.097z" fill="#fff"/><path d="M46.943 69.074c-1.194 0-2.266-.243-3.218-.73-.951-.487-1.699-1.16-2.242-2.02-.542-.86-.814-1.83-.814-2.907 0-1.078.272-2.047.814-2.907.544-.86 1.29-1.534 2.242-2.02.952-.488 2.024-.731 3.218-.731s2.266.243 3.218.73c.951.487 1.698 1.16 2.242 2.021.543.86.814 1.829.814 2.907 0 1.077-.271 2.046-.814 2.906-.544.86-1.29 1.534-2.242 2.02-.952.488-2.025.731-3.218.731zm0-2.549c.57 0 1.086-.13 1.548-.388.463-.26.828-.625 1.097-1.096.269-.472.403-1.013.403-1.624 0-.612-.134-1.153-.403-1.625a2.845 2.845 0 00-1.097-1.096 3.114 3.114 0 00-1.548-.388c-.57 0-1.086.13-1.548.389a2.843 2.843 0 00-1.097 1.095c-.269.472-.403 1.013-.403 1.625 0 .61.134 1.152.403 1.624.269.471.634.837 1.097 1.096a3.11 3.11 0 001.548.388z" fill="#008DD2"/><path d="M5.415 71.557c.46 0 .874.098 1.24.293.365.195.65.466.857.814.206.347.31.742.31 1.181 0 .44-.104.835-.31 1.182a2.15 2.15 0 01-.858.814 2.592 2.592 0 01-1.24.293 2.9 2.9 0 01-1.137-.214 2.159 2.159 0 01-.839-.616l.816-.717c.304.344.67.516 1.096.516.274 0 .507-.073.701-.217a1.11 1.11 0 00.401-.6h-1.65v-.918h1.637a1.065 1.065 0 00-.398-.572 1.15 1.15 0 00-.691-.208c-.427 0-.792.172-1.096.516l-.816-.717a2.16 2.16 0 01.839-.616 2.898 2.898 0 011.138-.214zm4.95 2.804H9.78v1.685H8.494v-4.4h1.285v1.71h.62l1.089-1.71h1.356l-1.428 2.124 1.441 2.276h-1.454l-1.037-1.685zm5.108 1.773c-.478 0-.908-.098-1.288-.293a2.18 2.18 0 01-1.223-1.996 2.18 2.18 0 011.223-1.995c.38-.195.81-.293 1.288-.293.417 0 .794.072 1.129.214.334.142.613.348.834.616l-.821.717c-.296-.344-.655-.516-1.077-.516-.248 0-.468.053-.662.158a1.111 1.111 0 00-.45.443c-.107.19-.16.41-.16.657 0 .247.053.466.16.656.107.191.257.339.45.444.194.104.415.157.662.157.422 0 .781-.172 1.077-.516l.821.717c-.221.268-.5.473-.834.616a2.859 2.859 0 01-1.129.214zm6.184-3.502H20.26v3.414h-1.272v-3.414h-1.402v-.987h4.07v.987zm2.68-.987c.414 0 .773.066 1.077.198.304.132.539.32.704.566.166.245.248.533.248.864 0 .331-.082.618-.248.862-.165.243-.4.43-.704.562a2.69 2.69 0 01-1.076.198h-.796v1.15H22.25v-4.4h2.088zm-.078 2.27c.266 0 .466-.056.6-.167.135-.11.203-.27.203-.475 0-.205-.068-.364-.203-.477-.134-.113-.334-.17-.6-.17h-.717v1.289h.717zm6.354 1.169v.962h-3.666v-4.4h3.58v.961h-2.302v.742h2.029v.93h-2.029v.805h2.387zm5.08-3.439v4.4h-1.29V74.33H32.64v1.717h-1.29v-4.4h1.291V73.3h1.761v-1.654h1.292zm5.323 0v4.4h-1.291V74.33h-1.761v1.717h-1.292v-4.4h1.292V73.3h1.76v-1.654h1.292zm3.307 1.402c.561 0 .994.12 1.299.362.304.24.456.598.456 1.071 0 .507-.17.895-.509 1.163-.339.269-.81.403-1.415.403h-2.16v-4.4h1.273v1.401h1.056zm-.254 2.106c.218 0 .39-.056.519-.17.128-.113.192-.272.192-.478 0-.38-.237-.571-.71-.571h-.803v1.219h.802zm2.511-3.508h1.272v4.4H46.58v-4.4zm2.257 0h1.272v2.584l1.885-2.584h1.214v4.4h-1.273v-2.577l-1.878 2.578h-1.22v-4.4zm7.247 0h1.272v2.584l1.885-2.584h1.213v4.4h-1.272v-2.577l-1.878 2.578h-1.22v-4.4zm8.688.987h-2.068v3.414h-1.271v-4.4h3.346l-.007.986zm2.674-.987c.413 0 .772.066 1.077.198.304.132.539.32.704.566.165.245.248.533.248.864 0 .331-.083.618-.248.862-.165.243-.4.43-.704.562a2.696 2.696 0 01-1.077.198h-.795v1.15h-1.292v-4.4h2.087zm-.078 2.27c.265 0 .465-.056.6-.167.135-.11.203-.27.203-.475 0-.205-.068-.364-.203-.477-.135-.113-.335-.17-.6-.17h-.717v1.289h.717zm4.997 2.219c-.483 0-.917-.099-1.302-.296a2.27 2.27 0 01-.906-.817c-.22-.348-.33-.74-.33-1.175 0-.436.11-.828.33-1.176.22-.348.522-.62.906-.817a2.813 2.813 0 011.302-.296c.482 0 .916.099 1.301.296.385.197.687.47.907.817.22.348.33.74.33 1.175 0 .436-.11.828-.33 1.176a2.27 2.27 0 01-.907.817 2.818 2.818 0 01-1.301.296zm0-1.031c.23 0 .439-.053.626-.157a1.15 1.15 0 00.443-.444c.11-.19.163-.41.163-.656 0-.248-.054-.467-.163-.657a1.15 1.15 0 00-.443-.443 1.257 1.257 0 00-.626-.158c-.23 0-.44.053-.626.158a1.153 1.153 0 00-.444.443 1.3 1.3 0 00-.163.657c0 .247.054.466.163.656.109.191.257.339.444.444.186.104.395.157.626.157zm6.555-1.358c.27.084.475.214.616.39.142.176.213.394.213.653 0 .39-.158.697-.473.921-.316.224-.763.337-1.34.337h-2.343v-4.4h2.218c.548 0 .973.099 1.275.298.303.199.454.48.454.846 0 .213-.053.402-.16.565a1.11 1.11 0 01-.46.39zm-2.055-.34h.822c.366 0 .548-.144.548-.433 0-.29-.182-.434-.548-.434h-.822v.868zm1.018 1.748c.374 0 .561-.153.561-.459 0-.297-.187-.446-.561-.446h-1.018v.905h1.018zm4.807.98c-.482 0-.916-.098-1.301-.295a2.27 2.27 0 01-.907-.817 2.153 2.153 0 01-.329-1.175c0-.436.11-.828.33-1.176.219-.348.521-.62.906-.817a2.813 2.813 0 011.301-.296c.483 0 .917.099 1.302.296.384.197.687.47.906.817.22.348.33.74.33 1.175 0 .436-.11.828-.33 1.176a2.27 2.27 0 01-.906.817 2.818 2.818 0 01-1.302.296zm0-1.03c.23 0 .44-.053.627-.157.186-.105.335-.253.443-.444.109-.19.163-.41.163-.656 0-.248-.054-.467-.163-.657a1.15 1.15 0 00-.444-.443 1.256 1.256 0 00-.626-.158c-.23 0-.439.053-.626.158a1.152 1.152 0 00-.443.443c-.11.19-.163.41-.163.657 0 .247.054.466.163.656.108.191.256.339.443.444.187.104.396.157.626.157zm3.23-3.458h1.271v2.584l1.885-2.584h1.214v4.4h-1.273v-2.577l-1.878 2.578h-1.22v-4.4z" fill="#fff"/><path fill-rule="evenodd" clip-rule="evenodd" d="M87.736 70.775h1.335l-1.335 1.836v-1.836zm-37.081 0h1.335l-1.335 1.836v-1.836z" fill="#fff"/></svg>