<svg width="36" height="36" fill="none" xmlns="http://www.w3.org/2000/svg"><rect width="36" height="36" rx="18" fill="#fff" fill-opacity=".5"/><path d="M24.44 13.421c-2.096-1.568-4.104-1.524-4.104-1.524l-.205.235c2.491.747 3.649 1.846 3.649 1.846-3.564-1.962-8.104-1.948-11.81 0 0 0 1.2-1.158 3.838-1.905l-.146-.176s-1.993-.044-4.103 1.524c0 0-2.11 3.795-2.11 8.47 0 0 1.231 2.11 4.47 2.212 0 0 .542-.645.981-1.202-1.86-.556-2.564-1.714-2.564-1.714 1.169.732 2.351 1.19 3.824 1.48 2.397.493 5.379-.014 7.605-1.48 0 0-.732 1.187-2.652 1.729.44.542.967 1.172.967 1.172 3.238-.102 4.469-2.212 4.469-2.198 0-4.674-2.11-8.469-2.11-8.469zm-9.174 7.107c-.82 0-1.494-.718-1.494-1.612.06-2.14 2.944-2.134 2.989 0 0 .894-.66 1.612-1.495 1.612zm5.349 0c-.821 0-1.495-.718-1.495-1.612.066-2.137 2.914-2.137 2.99 0 0 .894-.66 1.612-1.495 1.612z" fill="#26272B"/></svg>