<svg width="35" height="36" fill="none" xmlns="http://www.w3.org/2000/svg"><path d="M17.47 0C8.26 0 .716 7.285 0 16.542l9.396 3.986a4.84 4.84 0 013.069-.877l4.179-6.215v-.087c0-3.74 2.965-6.782 6.61-6.782 3.646 0 6.611 3.043 6.611 6.782 0 3.74-2.965 6.784-6.61 6.784-.051 0-.1-.002-.15-.003l-5.96 4.361c.003.081.006.162.006.242 0 2.808-2.227 5.092-4.963 5.092-2.401 0-4.41-1.76-4.865-4.088l-6.72-2.851C2.684 30.435 9.445 35.97 17.47 35.97c9.682 0 17.53-8.053 17.53-17.985C35 8.052 27.152 0 17.47 0zm-6.484 27.289l-2.154-.913a3.744 3.744 0 001.919 1.872c1.895.81 4.08-.111 4.869-2.057a3.888 3.888 0 00.006-2.923 3.751 3.751 0 00-2.01-2.073 3.627 3.627 0 00-2.746-.042l2.225.944c1.397.598 2.058 2.244 1.475 3.678-.581 1.433-2.187 2.112-3.584 1.514zm16.673-13.94c0-2.491-1.976-4.52-4.404-4.52-2.43 0-4.406 2.029-4.406 4.52 0 2.492 1.976 4.52 4.406 4.52 2.428 0 4.404-2.028 4.404-4.52zm-7.706-.007c0-1.875 1.482-3.395 3.308-3.395 1.828 0 3.31 1.52 3.31 3.395 0 1.874-1.482 3.394-3.31 3.394-1.826 0-3.308-1.52-3.308-3.394z" fill="#fff"/></svg>