<svg width="36" height="36" fill="none" xmlns="http://www.w3.org/2000/svg"><rect width="36" height="36" rx="18" fill="#fff" fill-opacity=".5"/><g clip-path="url(#clip0_173_4958)"><path d="M17.807 22.53h1.075s.325-.037.49-.216c.154-.164.148-.472.148-.472s-.021-1.444.65-1.656c.66-.21 1.508 1.395 2.407 2.012.68.467 1.196.365 1.196.365l2.404-.034s1.258-.077.661-1.066c-.048-.081-.347-.732-1.787-2.068-1.508-1.4-1.305-1.172.51-3.592 1.106-1.474 1.548-2.374 1.41-2.759-.132-.366-.945-.27-.945-.27l-2.704.016s-.2-.027-.35.062c-.146.088-.239.29-.239.29s-.428 1.141-1 2.11c-1.205 2.047-1.688 2.155-1.884 2.028-.458-.296-.343-1.19-.343-1.825 0-1.983.3-2.81-.587-3.024-.294-.07-.51-.118-1.263-.126-.965-.01-1.783.004-2.245.23-.309.15-.546.487-.401.506.179.024.584.11.799.402.278.377.268 1.225.268 1.225s.16 2.334-.373 2.624c-.366.2-.866-.207-1.94-2.064-.55-.95-.967-2.002-.967-2.002s-.08-.196-.223-.3c-.173-.128-.416-.168-.416-.168l-2.572.015s-.386.011-.527.18c-.126.149-.01.457-.01.457s2.013 4.71 4.293 7.085c2.091 2.177 4.465 2.034 4.465 2.034z" fill="#26272B"/></g><defs><clipPath id="clip0_173_4958"><path fill="#fff" transform="translate(9 9)" d="M0 0h18v18H0z"/></clipPath></defs></svg>