<svg width="30" height="30" fill="none" xmlns="http://www.w3.org/2000/svg"><rect width="30" height="30" rx="15" fill="#008DD2"/><path d="M16.01 10.047l1.026 2.054c.14.286.514.56.829.612l1.86.31c1.19.198 1.47 1.061.613 1.913l-1.447 1.447c-.244.245-.379.717-.303 1.055l.414 1.791c.327 1.418-.425 1.966-1.68 1.225l-1.744-1.032c-.315-.187-.834-.187-1.155 0l-1.744 1.032c-1.248.741-2.007.187-1.68-1.225l.414-1.79c.076-.339-.058-.811-.303-1.056l-1.447-1.447c-.851-.852-.577-1.715.613-1.913l1.86-.31c.31-.052.683-.326.823-.612l1.027-2.054c.56-1.114 1.47-1.114 2.024 0z" stroke="#fff" stroke-width="1.5" stroke-linecap="round" stroke-linejoin="round"/></svg>