<svg width="76" height="76" fill="none" xmlns="http://www.w3.org/2000/svg"><g filter="url(#filter0_d_8_41)"><rect x="24" y="24" width="28" height="28" rx="14" fill="#008DD2"/><path d="M39 32.64l-.256 7.728h-1.888l-.272-7.728H39zm-1.152 11.472c-.405 0-.741-.123-1.008-.368a1.283 1.283 0 01-.384-.944c0-.373.128-.683.384-.928.267-.256.603-.384 1.008-.384.395 0 .72.128.976.384.256.245.384.555.384.928s-.128.688-.384.944c-.256.245-.581.368-.976.368z" fill="#fff"/></g><defs><filter id="filter0_d_8_41" x="0" y="0" width="76" height="76" filterUnits="userSpaceOnUse" color-interpolation-filters="sRGB"><feFlood flood-opacity="0" result="BackgroundImageFix"/><feColorMatrix in="SourceAlpha" values="0 0 0 0 0 0 0 0 0 0 0 0 0 0 0 0 0 0 127 0" result="hardAlpha"/><feOffset/><feGaussianBlur stdDeviation="12"/><feComposite in2="hardAlpha" operator="out"/><feColorMatrix values="0 0 0 0 0 0 0 0 0 0.552941 0 0 0 0 0.823529 0 0 0 0.32 0"/><feBlend in2="BackgroundImageFix" result="effect1_dropShadow_8_41"/><feBlend in="SourceGraphic" in2="effect1_dropShadow_8_41" result="shape"/></filter></defs></svg>