<svg width="76" height="76" fill="none" xmlns="http://www.w3.org/2000/svg"><g filter="url(#filter0_d_8_46)"><rect x="24" y="24" width="28" height="28" rx="14" fill="#008DD2"/><path d="M37.752 32.004c1.248 0 2.25.342 3.006 1.026.768.672 1.152 1.602 1.152 2.79 0 1.176-.378 2.076-1.134 2.7-.756.612-1.758.918-3.006.918l-.072 1.386h-2.214l-.09-3.06h.81c1.044 0 1.848-.138 2.412-.414.564-.276.846-.78.846-1.512 0-.528-.156-.948-.468-1.26-.3-.312-.714-.468-1.242-.468-.552 0-.984.15-1.296.45-.3.3-.45.714-.45 1.242H33.63c-.012-.732.144-1.386.468-1.962a3.364 3.364 0 011.422-1.35c.636-.324 1.38-.486 2.232-.486zm-1.17 13.122c-.456 0-.834-.138-1.134-.414a1.444 1.444 0 01-.432-1.062c0-.42.144-.768.432-1.044.3-.288.678-.432 1.134-.432.444 0 .81.144 1.098.432.288.276.432.624.432 1.044 0 .42-.144.774-.432 1.062-.288.276-.654.414-1.098.414z" fill="#fff"/></g><defs><filter id="filter0_d_8_46" x="0" y="0" width="76" height="76" filterUnits="userSpaceOnUse" color-interpolation-filters="sRGB"><feFlood flood-opacity="0" result="BackgroundImageFix"/><feColorMatrix in="SourceAlpha" values="0 0 0 0 0 0 0 0 0 0 0 0 0 0 0 0 0 0 127 0" result="hardAlpha"/><feOffset/><feGaussianBlur stdDeviation="12"/><feComposite in2="hardAlpha" operator="out"/><feColorMatrix values="0 0 0 0 0 0 0 0 0 0.552941 0 0 0 0 0.823529 0 0 0 0.32 0"/><feBlend in2="BackgroundImageFix" result="effect1_dropShadow_8_46"/><feBlend in="SourceGraphic" in2="effect1_dropShadow_8_46" result="shape"/></filter></defs></svg>