<svg width="97" height="102" fill="none" xmlns="http://www.w3.org/2000/svg"><g filter="url(#filter0_d_168_5941)"><path d="M43.068 38.663c-6.04 2.73-8.732 9.864-6.002 15.903 2.73 6.04 9.864 8.731 15.903 6.002 6.038-2.73 8.731-9.864 6.001-15.904-2.73-6.038-9.864-8.73-15.902-6.001zm14.843 32.84c-12.068 5.454-26.325.074-31.78-11.995-5.455-12.068-.074-26.325 11.994-31.78 12.068-5.454 26.324-.073 31.779 11.995 5.455 12.069.075 26.324-11.993 31.78z" fill="#4930EC"/></g><g filter="url(#filter1_d_168_5941)"><path d="M52.926 45.606l-11.16 5.044-11.574-25.606L41.352 20l11.574 25.606z" fill="#008DD2"/></g><defs><filter id="filter0_d_168_5941" x="0" y="5.597" width="96.035" height="96.036" filterUnits="userSpaceOnUse" color-interpolation-filters="sRGB"><feFlood flood-opacity="0" result="BackgroundImageFix"/><feColorMatrix in="SourceAlpha" values="0 0 0 0 0 0 0 0 0 0 0 0 0 0 0 0 0 0 127 0" result="hardAlpha"/><feOffset dy="4"/><feGaussianBlur stdDeviation="12"/><feComposite in2="hardAlpha" operator="out"/><feColorMatrix values="0 0 0 0 0.286275 0 0 0 0 0.188235 0 0 0 0 0.92549 0 0 0 0.4 0"/><feBlend in2="BackgroundImageFix" result="effect1_dropShadow_168_5941"/><feBlend in="SourceGraphic" in2="effect1_dropShadow_168_5941" result="shape"/></filter><filter id="filter1_d_168_5941" x="6.192" y="0" width="70.734" height="78.65" filterUnits="userSpaceOnUse" color-interpolation-filters="sRGB"><feFlood flood-opacity="0" result="BackgroundImageFix"/><feColorMatrix in="SourceAlpha" values="0 0 0 0 0 0 0 0 0 0 0 0 0 0 0 0 0 0 127 0" result="hardAlpha"/><feOffset dy="4"/><feGaussianBlur stdDeviation="12"/><feComposite in2="hardAlpha" operator="out"/><feColorMatrix values="0 0 0 0 0 0 0 0 0 0.552941 0 0 0 0 0.823529 0 0 0 0.4 0"/><feBlend in2="BackgroundImageFix" result="effect1_dropShadow_168_5941"/><feBlend in="SourceGraphic" in2="effect1_dropShadow_168_5941" result="shape"/></filter></defs></svg>