<svg width="20" height="20" fill="none" xmlns="http://www.w3.org/2000/svg"><path d="M11.27 2.253l1.54 3.08c.21.43.77.84 1.243.92l2.791.463c1.785.297 2.205 1.592.92 2.87l-2.17 2.17c-.368.367-.57 1.076-.456 1.584l.621 2.686c.49 2.126-.638 2.949-2.52 1.837l-2.616-1.548c-.472-.28-1.251-.28-1.732 0l-2.617 1.548c-1.872 1.112-3.01.28-2.52-1.837l.622-2.686c.113-.508-.088-1.217-.455-1.584l-2.17-2.17c-1.278-1.278-.867-2.573.918-2.87l2.792-.464c.463-.079 1.023-.49 1.233-.919l1.54-3.08c.84-1.67 2.205-1.67 3.037 0z" stroke="#FEA218" stroke-width="1.5" stroke-linecap="round" stroke-linejoin="round"/></svg>