<svg width="20" height="21" fill="none" xmlns="http://www.w3.org/2000/svg"><path d="M18.05 9.2l-.817 3.483c-.7 3.009-2.083 4.225-4.683 3.975a8.776 8.776 0 01-1.35-.225L9.8 16.1c-3.475-.825-4.55-2.542-3.733-6.025l.816-3.492c.167-.708.367-1.325.617-1.833.975-2.017 2.633-2.558 5.417-1.9l1.391.325c3.492.817 4.559 2.542 3.742 6.025z" stroke="#fff" stroke-width="1.5" stroke-linecap="round" stroke-linejoin="round"/><path d="M12.55 16.658c-.517.35-1.167.642-1.959.9l-1.316.434c-3.309 1.066-5.05.175-6.125-3.134l-1.067-3.291C1.016 8.258 1.9 6.508 5.208 5.442l1.317-.434c.341-.108.666-.2.975-.258-.25.508-.45 1.125-.617 1.833l-.817 3.492c-.816 3.483.259 5.2 3.734 6.025l1.4.333c.483.117.933.192 1.35.225zm-2.017-9.05l4.042 1.025m-4.858 2.2l2.416.617" stroke="#fff" stroke-width="1.5" stroke-linecap="round" stroke-linejoin="round"/></svg>