<svg width="20" height="21" fill="none" xmlns="http://www.w3.org/2000/svg"><path fill-rule="evenodd" clip-rule="evenodd" d="M7.083 5.825c0-1.53.31-2.406.823-2.919.513-.512 1.389-.823 2.919-.823h3.85c1.53 0 2.406.311 2.918.823.513.513.824 1.389.824 2.919v3.85c0 1.53-.311 2.406-.824 2.919-.512.512-1.388.823-2.918.823h-.258v-2.092c0-1.468-.254-2.7-.941-3.61a3.54 3.54 0 00-.322-.37c-.931-.93-2.3-1.262-3.98-1.262h-2.09v-.258zm-1.5.258v-.258c0-1.678.331-3.048 1.263-3.98.931-.93 2.3-1.262 3.979-1.262h3.85c1.678 0 3.048.331 3.98 1.263.93.931 1.262 2.3 1.262 3.979v3.85c0 1.678-.331 3.048-1.263 3.98-.931.93-2.3 1.262-3.98 1.262h-.257v.258c0 1.678-.331 3.048-1.263 3.98-.931.93-2.3 1.262-3.98 1.262h-3.85c-1.677 0-3.047-.331-3.978-1.263-.932-.931-1.263-2.3-1.263-3.979v-3.85c0-1.678.331-3.048 1.263-3.98.931-.93 2.3-1.262 3.979-1.262h.258zm.75 1.5H5.325c-1.53 0-2.406.311-2.919.823-.512.513-.823 1.389-.823 2.919v3.85c0 1.53.31 2.406.823 2.919.513.512 1.389.823 2.919.823h3.85c1.53 0 2.406-.31 2.918-.823.513-.513.824-1.389.824-2.919v-3.85c0-1.148-.175-1.927-.479-2.462a2.125 2.125 0 00-.345-.457c-.48-.48-1.28-.783-2.639-.819a10.55 10.55 0 00-.28-.004h-2.84z" fill="#fff"/></svg>